<mxfile host="65bd71144e">
    <diagram id="API_Gateway_Security" name="API Gateway Security Architecture">
        <mxGraphModel dx="997" dy="519" grid="0" gridSize="10" guides="1" tooltips="1" connect="1" arrows="1" fold="1" page="0" pageScale="1" pageWidth="1169" pageHeight="827" math="0" shadow="0">
            <root>
                <mxCell id="0"/>
                <mxCell id="1" parent="0"/>
                <mxCell id="client_app" value="客户端应用" style="rounded=1;whiteSpace=wrap;html=1;fillColor=#dae8fc;strokeColor=#6c8ebf;fontStyle=1;fontSize=14;" parent="1" vertex="1">
                    <mxGeometry x="120" y="280" width="120" height="60" as="geometry"/>
                </mxCell>
                <mxCell id="api_gateway" value="API数据联盟网关平台" style="rounded=1;whiteSpace=wrap;html=1;fillColor=#f8cecc;strokeColor=#b85450;fontStyle=1;fontSize=14;" parent="1" vertex="1">
                    <mxGeometry x="400" y="280" width="140" height="60" as="geometry"/>
                </mxCell>
                <mxCell id="resource_server" value="资源服务器" style="rounded=1;whiteSpace=wrap;html=1;fillColor=#d5e8d4;strokeColor=#82b366;fontStyle=1;fontSize=14;" parent="1" vertex="1">
                    <mxGeometry x="680" y="280" width="120" height="60" as="geometry"/>
                </mxCell>
                <mxCell id="auth_server" value="授权服务器&#xa;(OAuth 2.0)" style="rounded=1;whiteSpace=wrap;html=1;fillColor=#ffe6cc;strokeColor=#d79b00;fontStyle=1;fontSize=14;" parent="1" vertex="1">
                    <mxGeometry x="400" y="120" width="140" height="60" as="geometry"/>
                </mxCell>
                <mxCell id="https_client_gateway" value="HTTPS" style="endArrow=classic;startArrow=classic;html=1;rounded=0;entryX=0;entryY=0.5;entryDx=0;entryDy=0;exitX=1;exitY=0.5;exitDx=0;exitDy=0;strokeWidth=2;fontSize=12;fontStyle=1;fillColor=#dae8fc;strokeColor=#6c8ebf;" parent="1" source="client_app" target="api_gateway" edge="1">
                    <mxGeometry width="50" height="50" relative="1" as="geometry">
                        <mxPoint x="260" y="310" as="sourcePoint"/>
                        <mxPoint x="310" y="260" as="targetPoint"/>
                    </mxGeometry>
                </mxCell>
                <mxCell id="https_gateway_resource" value="HTTPS" style="endArrow=classic;startArrow=classic;html=1;rounded=0;entryX=0;entryY=0.5;entryDx=0;entryDy=0;exitX=1;exitY=0.5;exitDx=0;exitDy=0;strokeWidth=2;fontSize=12;fontStyle=1;fillColor=#dae8fc;strokeColor=#6c8ebf;" parent="1" source="api_gateway" target="resource_server" edge="1">
                    <mxGeometry width="50" height="50" relative="1" as="geometry">
                        <mxPoint x="530" y="310" as="sourcePoint"/>
                        <mxPoint x="580" y="260" as="targetPoint"/>
                    </mxGeometry>
                </mxCell>
                <mxCell id="oauth_flow_1" value="1. 请求授权" style="endArrow=classic;html=1;rounded=0;exitX=0.5;exitY=0;exitDx=0;exitDy=0;entryX=0;entryY=0.5;entryDx=0;entryDy=0;dashed=1;strokeWidth=1.5;fontSize=11;fillColor=#ffe6cc;strokeColor=#d79b00;" parent="1" source="client_app" target="auth_server" edge="1">
                    <mxGeometry width="50" height="50" relative="1" as="geometry">
                        <mxPoint x="530" y="310" as="sourcePoint"/>
                        <mxPoint x="580" y="260" as="targetPoint"/>
                        <Array as="points">
                            <mxPoint x="180" y="150"/>
                        </Array>
                    </mxGeometry>
                </mxCell>
                <mxCell id="oauth_flow_2" value="2. 返回Token" style="endArrow=classic;html=1;rounded=0;exitX=0;exitY=0.75;exitDx=0;exitDy=0;entryX=0.25;entryY=0;entryDx=0;entryDy=0;dashed=1;strokeWidth=1.5;fontSize=11;fillColor=#ffe6cc;strokeColor=#d79b00;" parent="1" source="auth_server" target="client_app" edge="1">
                    <mxGeometry width="50" height="50" relative="1" as="geometry">
                        <mxPoint x="530" y="310" as="sourcePoint"/>
                        <mxPoint x="580" y="260" as="targetPoint"/>
                        <Array as="points">
                            <mxPoint x="150" y="165"/>
                        </Array>
                    </mxGeometry>
                </mxCell>
                <mxCell id="oauth_flow_3" value="3. 带Token请求" style="endArrow=classic;html=1;rounded=0;exitX=0.75;exitY=0;exitDx=0;exitDy=0;entryX=0.5;entryY=0;entryDx=0;entryDy=0;dashed=1;strokeWidth=1.5;fontSize=11;fillColor=#ffe6cc;strokeColor=#d79b00;" parent="1" source="api_gateway" target="auth_server" edge="1">
                    <mxGeometry x="0.8298" y="-20" width="50" height="50" relative="1" as="geometry">
                        <mxPoint x="530" y="310" as="sourcePoint"/>
                        <mxPoint x="580" y="260" as="targetPoint"/>
                        <Array as="points">
                            <mxPoint x="505" y="100"/>
                            <mxPoint x="470" y="100"/>
                        </Array>
                        <mxPoint as="offset"/>
                    </mxGeometry>
                </mxCell>
                <mxCell id="oauth_flow_4" value="4. 验证Token" style="endArrow=classic;html=1;rounded=0;exitX=0.75;exitY=0;exitDx=0;exitDy=0;entryX=0.75;entryY=0;entryDx=0;entryDy=0;dashed=1;strokeWidth=1.5;fontSize=11;fillColor=#ffe6cc;strokeColor=#d79b00;" parent="1" source="auth_server" target="api_gateway" edge="1">
                    <mxGeometry x="-0.6667" y="55" width="50" height="50" relative="1" as="geometry">
                        <mxPoint x="530" y="310" as="sourcePoint"/>
                        <mxPoint x="580" y="260" as="targetPoint"/>
                        <Array as="points">
                            <mxPoint x="505" y="80"/>
                            <mxPoint x="505" y="80"/>
                        </Array>
                        <mxPoint as="offset"/>
                    </mxGeometry>
                </mxCell>
                <mxCell id="encryption_box1" value="加密数据传输" style="shape=hexagon;perimeter=hexagonPerimeter2;whiteSpace=wrap;html=1;fixedSize=1;fillColor=#e1d5e7;strokeColor=#9673a6;fontStyle=1;fontSize=12;" parent="1" vertex="1">
                    <mxGeometry x="260" y="230" width="120" height="40" as="geometry"/>
                </mxCell>
                <mxCell id="encryption_box2" value="加密数据传输" style="shape=hexagon;perimeter=hexagonPerimeter2;whiteSpace=wrap;html=1;fixedSize=1;fillColor=#e1d5e7;strokeColor=#9673a6;fontStyle=1;fontSize=12;" parent="1" vertex="1">
                    <mxGeometry x="560" y="230" width="120" height="40" as="geometry"/>
                </mxCell>
                <mxCell id="security_box" value="安全保障" style="swimlane;fontStyle=1;childLayout=stackLayout;horizontal=1;startSize=26;fillColor=#e1d5e7;horizontalStack=0;resizeParent=1;resizeParentMax=0;resizeLast=0;collapsible=1;marginBottom=0;strokeColor=#9673a6;fontSize=14;" parent="1" vertex="1">
                    <mxGeometry x="380" y="380" width="180" height="130" as="geometry"/>
                </mxCell>
                <mxCell id="security_item1" value="• OAuth 2.0 身份认证授权" style="text;strokeColor=none;fillColor=none;align=left;verticalAlign=top;spacingLeft=4;spacingRight=4;overflow=hidden;rotatable=0;points=[[0,0.5],[1,0.5]];portConstraint=eastwest;fontSize=12;" parent="security_box" vertex="1">
                    <mxGeometry y="26" width="180" height="26" as="geometry"/>
                </mxCell>
                <mxCell id="security_item2" value="• HTTPS 传输层加密" style="text;strokeColor=none;fillColor=none;align=left;verticalAlign=top;spacingLeft=4;spacingRight=4;overflow=hidden;rotatable=0;points=[[0,0.5],[1,0.5]];portConstraint=eastwest;fontSize=12;" parent="security_box" vertex="1">
                    <mxGeometry y="52" width="180" height="26" as="geometry"/>
                </mxCell>
                <mxCell id="security_item3" value="• AES 业务数据加密" style="text;strokeColor=none;fillColor=none;align=left;verticalAlign=top;spacingLeft=4;spacingRight=4;overflow=hidden;rotatable=0;points=[[0,0.5],[1,0.5]];portConstraint=eastwest;fontSize=12;" parent="security_box" vertex="1">
                    <mxGeometry y="78" width="180" height="26" as="geometry"/>
                </mxCell>
                <mxCell id="security_item4" value="• 防流量劫持和抓包分析" style="text;strokeColor=none;fillColor=none;align=left;verticalAlign=top;spacingLeft=4;spacingRight=4;overflow=hidden;rotatable=0;points=[[0,0.5],[1,0.5]];portConstraint=eastwest;fontSize=12;" parent="security_box" vertex="1">
                    <mxGeometry y="104" width="180" height="26" as="geometry"/>
                </mxCell>
                <mxCell id="aes_callout" value="AES加密算法&#xa;所有业务字段加密传输" style="shape=callout;whiteSpace=wrap;html=1;perimeter=calloutPerimeter;fillColor=#fff2cc;strokeColor=#d6b656;size=30;position=0.42;base=20;fontSize=11;fontStyle=1" parent="1" vertex="1">
                    <mxGeometry x="400" y="170" width="140" height="70" as="geometry"/>
                </mxCell>
                <mxCell id="title" value="API数据联盟网关平台 - 安全架构" style="text;html=1;strokeColor=none;fillColor=none;align=center;verticalAlign=middle;whiteSpace=wrap;rounded=0;fontSize=18;fontStyle=1" parent="1" vertex="1">
                    <mxGeometry x="310" y="30" width="320" height="30" as="geometry"/>
                </mxCell>
                <mxCell id="hacker" value="黑客" style="shape=umlActor;verticalLabelPosition=bottom;verticalAlign=top;html=1;outlineConnect=0;fillColor=#f5f5f5;strokeColor=#666666;fontColor=#333333;" parent="1" vertex="1">
                    <mxGeometry x="290" y="370" width="30" height="60" as="geometry"/>
                </mxCell>
                <mxCell id="hack_attempt" value="" style="endArrow=classic;html=1;rounded=0;exitX=0.5;exitY=0.5;exitDx=0;exitDy=0;exitPerimeter=0;entryX=0.5;entryY=1;entryDx=0;entryDy=0;dashed=1;strokeWidth=1;strokeColor=#FF0000;" parent="1" edge="1">
                    <mxGeometry width="50" height="50" relative="1" as="geometry">
                        <mxPoint x="315" y="400" as="sourcePoint"/>
                        <mxPoint x="330" y="270" as="targetPoint"/>
                    </mxGeometry>
                </mxCell>
                <mxCell id="block_sign" value="" style="shape=umlDestroy;whiteSpace=wrap;html=1;strokeWidth=3;strokeColor=#FF0000;fillColor=#f8cecc;" parent="1" vertex="1">
                    <mxGeometry x="300" y="300" width="30" height="30" as="geometry"/>
                </mxCell>
            </root>
        </mxGraphModel>
    </diagram>
</mxfile>